<svg xmlns="http://www.w3.org/2000/svg" xmlns:xlink="http://www.w3.org/1999/xlink" width="1551pt" height="553pt" viewBox="0.00 0.00 1551.00 552.53"><link xmlns="" type="text/css" rel="stylesheet" id="dark-mode-custom-link"/><link xmlns="" type="text/css" rel="stylesheet" id="dark-mode-general-link"/><style xmlns="" lang="en" type="text/css" id="dark-mode-custom-style"/><style xmlns="" lang="en" type="text/css" id="dark-mode-native-style"/><style xmlns="" lang="en" type="text/css" id="dark-mode-native-sheet"/>
<g id="graph0" class="graph" transform="scale(1 1) rotate(0) translate(4 548.53)">
<title>vtkInteractorStyleSwitch</title>
<polygon fill="white" stroke="transparent" points="-4,4 -4,-548.53 1547,-548.53 1547,4 -4,4"/>
<!-- Node1 -->
<g id="node1" class="node">
<title>Node1</title>
<g id="a_node1"><a xlink:title="class to swap between interactory styles">
<polygon fill="#bfbfbf" stroke="black" points="1419,-240.03 1419,-259.03 1543,-259.03 1543,-240.03 1419,-240.03"/>
<text text-anchor="middle" x="1481" y="-247.03" font-family="Helvetica" font-size="10.00">vtkInteractorStyleSwitch</text>
</a>
</g>
</g>
<!-- Node2 -->
<g id="node2" class="node">
<title>Node2</title>
<g id="a_node2"><a xlink:href="classvtkInteractorStyleSwitchBase.html" target="_top" xlink:title="dummy interface class.">
<polygon fill="white" stroke="black" points="993,-202.03 993,-221.03 1139,-221.03 1139,-202.03 993,-202.03"/>
<text text-anchor="middle" x="1066" y="-209.03" font-family="Helvetica" font-size="10.00">vtkInteractorStyleSwitchBase</text>
</a>
</g>
</g>
<!-- Node2&#45;&gt;Node1 -->
<g id="edge1" class="edge">
<title>Node2-&gt;Node1</title>
<path fill="none" stroke="midnightblue" d="M1149.39,-215.07C1217.13,-218.55 1315.53,-224.92 1401,-235.53 1410.68,-236.73 1420.97,-238.33 1430.81,-240"/>
<polygon fill="midnightblue" stroke="midnightblue" points="1149.37,-211.56 1139.2,-214.56 1149.02,-218.56 1149.37,-211.56"/>
</g>
<!-- Node3 -->
<g id="node3" class="node">
<title>Node3</title>
<g id="a_node3"><a xlink:href="classvtkInteractorStyle.html" target="_top" xlink:title="provide event-driven interface to the rendering window (defines trackball mode)">
<polygon fill="white" stroke="black" points="636,-299.03 636,-318.03 730,-318.03 730,-299.03 636,-299.03"/>
<text text-anchor="middle" x="683" y="-306.03" font-family="Helvetica" font-size="10.00">vtkInteractorStyle</text>
</a>
</g>
</g>
<!-- Node3&#45;&gt;Node1 -->
<g id="edge35" class="edge">
<title>Node3-&gt;Node1</title>
<path fill="none" stroke="#9a32cd" stroke-dasharray="5,2" d="M740.08,-298.67C770.2,-293.72 808.03,-288.04 842,-284.53 1053.03,-262.77 1304.83,-253.99 1418.7,-250.94"/>
<polygon fill="#9a32cd" stroke="#9a32cd" points="739.46,-295.23 730.17,-300.32 740.61,-302.13 739.46,-295.23"/>
<text text-anchor="middle" x="1066" y="-273.53" font-family="Helvetica" font-size="10.00"> CurrentStyle</text>
</g>
<!-- Node3&#45;&gt;Node2 -->
<g id="edge2" class="edge">
<title>Node3-&gt;Node2</title>
<path fill="none" stroke="midnightblue" d="M694.35,-290.07C705.23,-272.65 724.08,-247.48 748,-235.53 825.02,-197.06 925.89,-196.56 992.94,-202.04"/>
<polygon fill="midnightblue" stroke="midnightblue" points="691.25,-288.43 689.15,-298.81 697.27,-292.01 691.25,-288.43"/>
</g>
<!-- Node118 -->
<g id="node15" class="node">
<title>Node118</title>
<g id="a_node15"><a xlink:href="classvtkInteractorStyleJoystickCamera.html" target="_top" xlink:title="interactive manipulation of the camera">
<polygon fill="white" stroke="black" points="1001,-361.53 1001,-391.53 1131,-391.53 1131,-361.53 1001,-361.53"/>
<text text-anchor="start" x="1009" y="-379.53" font-family="Helvetica" font-size="10.00">vtkInteractorStyleJoystick</text>
<text text-anchor="middle" x="1066" y="-368.53" font-family="Helvetica" font-size="10.00">Camera</text>
</a>
</g>
</g>
<!-- Node3&#45;&gt;Node118 -->
<g id="edge22" class="edge">
<title>Node3-&gt;Node118</title>
<path fill="none" stroke="midnightblue" d="M736.19,-320.16C740.18,-320.98 744.15,-321.78 748,-322.53 835.27,-339.5 936.63,-356.25 1000.79,-366.49"/>
<polygon fill="midnightblue" stroke="midnightblue" points="736.79,-316.71 726.29,-318.07 735.35,-323.56 736.79,-316.71"/>
</g>
<!-- Node119 -->
<g id="node16" class="node">
<title>Node119</title>
<g id="a_node16"><a xlink:href="classvtkInteractorStyleTrackballActor.html" target="_top" xlink:title="manipulate objects in the scene independent of each other">
<polygon fill="white" stroke="black" points="842,-74.53 842,-104.53 975,-104.53 975,-74.53 842,-74.53"/>
<text text-anchor="start" x="850" y="-92.53" font-family="Helvetica" font-size="10.00">vtkInteractorStyleTrackball</text>
<text text-anchor="middle" x="908.5" y="-81.53" font-family="Helvetica" font-size="10.00">Actor</text>
</a>
</g>
</g>
<!-- Node3&#45;&gt;Node119 -->
<g id="edge24" class="edge">
<title>Node3-&gt;Node119</title>
<path fill="none" stroke="midnightblue" d="M684.31,-288.48C686.09,-248.97 696.03,-161.06 748,-116.53 762.13,-104.43 804.36,-97.62 841.82,-93.87"/>
<polygon fill="midnightblue" stroke="midnightblue" points="680.81,-288.57 683.99,-298.67 687.8,-288.79 680.81,-288.57"/>
</g>
<!-- Node127 -->
<g id="node21" class="node">
<title>Node127</title>
<g id="a_node21"><a xlink:href="classvtkInteractorStyleJoystickActor.html" target="_top" xlink:title="manipulate objects in the scene independently of one another">
<polygon fill="white" stroke="black" points="843.5,-149.53 843.5,-179.53 973.5,-179.53 973.5,-149.53 843.5,-149.53"/>
<text text-anchor="start" x="851.5" y="-167.53" font-family="Helvetica" font-size="10.00">vtkInteractorStyleJoystick</text>
<text text-anchor="middle" x="908.5" y="-156.53" font-family="Helvetica" font-size="10.00">Actor</text>
</a>
</g>
</g>
<!-- Node3&#45;&gt;Node127 -->
<g id="edge32" class="edge">
<title>Node3-&gt;Node127</title>
<path fill="none" stroke="midnightblue" d="M690.02,-289.35C698.74,-264.82 717.29,-222.87 748,-200.53 763.32,-189.39 806.04,-180.07 843.41,-173.72"/>
<polygon fill="midnightblue" stroke="midnightblue" points="686.65,-288.38 686.79,-298.97 693.29,-290.61 686.65,-288.38"/>
</g>
<!-- Node129 -->
<g id="node23" class="node">
<title>Node129</title>
<g id="a_node23"><a xlink:href="classvtkInteractorStyleTrackballCamera.html" target="_top" xlink:title="interactive manipulation of the camera">
<polygon fill="white" stroke="black" points="842,-293.53 842,-323.53 975,-323.53 975,-293.53 842,-293.53"/>
<text text-anchor="start" x="850" y="-311.53" font-family="Helvetica" font-size="10.00">vtkInteractorStyleTrackball</text>
<text text-anchor="middle" x="908.5" y="-300.53" font-family="Helvetica" font-size="10.00">Camera</text>
</a>
</g>
</g>
<!-- Node3&#45;&gt;Node129 -->
<g id="edge38" class="edge">
<title>Node3-&gt;Node129</title>
<path fill="none" stroke="midnightblue" d="M740.18,-308.53C771,-308.53 809.38,-308.53 841.6,-308.53"/>
<polygon fill="midnightblue" stroke="midnightblue" points="740.04,-305.03 730.04,-308.53 740.04,-312.03 740.04,-305.03"/>
</g>
<!-- Node4 -->
<g id="node4" class="node">
<title>Node4</title>
<g id="a_node4"><a xlink:href="classvtkInteractorObserver.html" target="_top" xlink:title="an abstract superclass for classes observing events invoked by vtkRenderWindowInteractor">
<polygon fill="white" stroke="red" points="401,-275.03 401,-294.03 512,-294.03 512,-275.03 401,-275.03"/>
<text text-anchor="middle" x="456.5" y="-282.03" font-family="Helvetica" font-size="10.00">vtkInteractorObserver</text>
</a>
</g>
</g>
<!-- Node4&#45;&gt;Node3 -->
<g id="edge3" class="edge">
<title>Node4-&gt;Node3</title>
<path fill="none" stroke="midnightblue" d="M522.15,-291.44C558.51,-295.33 603.04,-300.09 635.86,-303.6"/>
<polygon fill="midnightblue" stroke="midnightblue" points="522.45,-287.96 512.13,-290.37 521.7,-294.92 522.45,-287.96"/>
</g>
<!-- Node24 -->
<g id="node5" class="node">
<title>Node24</title>
<g id="a_node5"><a xlink:href="classvtkRenderer.html" target="_top" xlink:title="abstract specification for renderers">
<polygon fill="white" stroke="red" points="205,-234.03 205,-253.03 274,-253.03 274,-234.03 205,-234.03"/>
<text text-anchor="middle" x="239.5" y="-241.03" font-family="Helvetica" font-size="10.00">vtkRenderer</text>
</a>
</g>
</g>
<!-- Node24&#45;&gt;Node3 -->
<g id="edge17" class="edge">
<title>Node24-&gt;Node3</title>
<path fill="none" stroke="#9a32cd" stroke-dasharray="5,2" d="M283.67,-231.46C340.33,-217.44 442.59,-198.41 528,-216.53 570.82,-225.62 580.69,-233.64 618,-256.53 638.5,-269.11 659.66,-287.57 671.78,-298.78"/>
<polygon fill="#9a32cd" stroke="#9a32cd" points="282.47,-228.16 273.64,-234.01 284.19,-234.94 282.47,-228.16"/>
<text text-anchor="middle" x="456.5" y="-219.53" font-family="Helvetica" font-size="10.00"> PickedRenderer</text>
</g>
<!-- Node24&#45;&gt;Node4 -->
<g id="edge4" class="edge">
<title>Node24-&gt;Node4</title>
<path fill="none" stroke="#9a32cd" stroke-dasharray="5,2" d="M278.42,-256.01C282.97,-257.3 287.57,-258.51 292,-259.53 327.96,-267.82 369.01,-274.08 400.99,-278.27"/>
<polygon fill="#9a32cd" stroke="#9a32cd" points="279.21,-252.6 268.63,-253.1 277.21,-259.31 279.21,-252.6"/>
<text text-anchor="middle" x="329.5" y="-286.53" font-family="Helvetica" font-size="10.00"> CurrentRenderer</text>
<text text-anchor="middle" x="329.5" y="-275.53" font-family="Helvetica" font-size="10.00">DefaultRenderer</text>
</g>
<!-- Node114 -->
<g id="node13" class="node">
<title>Node114</title>
<g id="a_node13"><a xlink:href="classvtkTDxInteractorStyle.html" target="_top" xlink:title="provide 3DConnexion device event-driven interface to the rendering window">
<polygon fill="white" stroke="red" points="400,-237.03 400,-256.03 513,-256.03 513,-237.03 400,-237.03"/>
<text text-anchor="middle" x="456.5" y="-244.03" font-family="Helvetica" font-size="10.00">vtkTDxInteractorStyle</text>
</a>
</g>
</g>
<!-- Node24&#45;&gt;Node114 -->
<g id="edge19" class="edge">
<title>Node24-&gt;Node114</title>
<path fill="none" stroke="#9a32cd" stroke-dasharray="5,2" d="M284.46,-244.15C317.87,-244.61 364.04,-245.26 399.99,-245.76"/>
<polygon fill="#9a32cd" stroke="#9a32cd" points="284.14,-240.64 274.09,-244 284.04,-247.64 284.14,-240.64"/>
<text text-anchor="middle" x="329.5" y="-247.53" font-family="Helvetica" font-size="10.00"> Renderer</text>
</g>
<!-- Node29 -->
<g id="node6" class="node">
<title>Node29</title>
<g id="a_node6"><a xlink:href="classvtkProp.html" target="_top" xlink:title="abstract superclass for all actors, volumes and annotations">
<polygon fill="white" stroke="red" points="6,-381.03 6,-400.03 56,-400.03 56,-381.03 6,-381.03"/>
<text text-anchor="middle" x="31" y="-388.03" font-family="Helvetica" font-size="10.00">vtkProp</text>
</a>
</g>
</g>
<!-- Node29&#45;&gt;Node3 -->
<g id="edge8" class="edge">
<title>Node29-&gt;Node3</title>
<path fill="none" stroke="#9a32cd" stroke-dasharray="5,2" d="M65.92,-398.91C128.49,-413.89 266.55,-444.72 385,-455.53 448.29,-461.31 464.61,-460.09 528,-455.53 568.31,-452.64 585.45,-466.48 618,-442.53 660.78,-411.06 676.15,-343.47 680.52,-318.27"/>
<polygon fill="#9a32cd" stroke="#9a32cd" points="66.72,-395.51 56.18,-396.56 65.08,-402.31 66.72,-395.51"/>
<text text-anchor="middle" x="329.5" y="-456.53" font-family="Helvetica" font-size="10.00"> CurrentProp</text>
</g>
<!-- Node29&#45;&gt;Node24 -->
<g id="edge5" class="edge">
<title>Node29-&gt;Node24</title>
<path fill="none" stroke="#9a32cd" stroke-dasharray="5,2" d="M54.2,-374.84C84.32,-353.53 139.79,-314.24 187,-280.53 199.9,-271.32 214.58,-260.76 224.96,-253.29"/>
<polygon fill="#9a32cd" stroke="#9a32cd" points="51.85,-372.22 45.7,-380.85 55.89,-377.93 51.85,-372.22"/>
<text text-anchor="middle" x="133.5" y="-358.53" font-family="Helvetica" font-size="10.00"> PropArray</text>
</g>
<!-- Node85 -->
<g id="node9" class="node">
<title>Node85</title>
<g id="a_node9"><a xlink:href="classvtkActor2D.html" target="_top" xlink:title="a actor that draws 2D data">
<polygon fill="white" stroke="red" points="296.5,-509.03 296.5,-528.03 362.5,-528.03 362.5,-509.03 296.5,-509.03"/>
<text text-anchor="middle" x="329.5" y="-516.03" font-family="Helvetica" font-size="10.00">vtkActor2D</text>
</a>
</g>
</g>
<!-- Node29&#45;&gt;Node85 -->
<g id="edge10" class="edge">
<title>Node29-&gt;Node85</title>
<path fill="none" stroke="midnightblue" d="M35.79,-410.25C41.3,-433.09 53.85,-469.96 80,-488.53 145.36,-534.97 245.58,-530.05 296.47,-523.69"/>
<polygon fill="midnightblue" stroke="midnightblue" points="39.17,-409.33 33.63,-400.3 32.33,-410.82 39.17,-409.33"/>
</g>
<!-- Node93 -->
<g id="node11" class="node">
<title>Node93</title>
<g id="a_node11"><a xlink:href="classvtkProp3D.html" target="_top" xlink:title="represents an 3D object for placement in a rendered scene">
<polygon fill="white" stroke="red" points="208,-161.03 208,-180.03 271,-180.03 271,-161.03 208,-161.03"/>
<text text-anchor="middle" x="239.5" y="-168.03" font-family="Helvetica" font-size="10.00">vtkProp3D</text>
</a>
</g>
</g>
<!-- Node29&#45;&gt;Node93 -->
<g id="edge13" class="edge">
<title>Node29-&gt;Node93</title>
<path fill="none" stroke="midnightblue" d="M33.19,-370.52C36.09,-338.92 46.03,-277.19 80,-239.53 113.97,-201.87 172.17,-183.86 207.8,-175.97"/>
<polygon fill="midnightblue" stroke="midnightblue" points="29.69,-370.46 32.41,-380.7 36.67,-371 29.69,-370.46"/>
</g>
<!-- Node47 -->
<g id="node7" class="node">
<title>Node47</title>
<g id="a_node7"><a xlink:href="classvtkTexture.html" target="_top" xlink:title="handles properties associated with a texture map">
<polygon fill="white" stroke="red" points="0,-234.03 0,-253.03 62,-253.03 62,-234.03 0,-234.03"/>
<text text-anchor="middle" x="31" y="-241.03" font-family="Helvetica" font-size="10.00">vtkTexture</text>
</a>
</g>
</g>
<!-- Node47&#45;&gt;Node24 -->
<g id="edge6" class="edge">
<title>Node47-&gt;Node24</title>
<path fill="none" stroke="#9a32cd" stroke-dasharray="5,2" d="M72.37,-243.53C110.94,-243.53 168.42,-243.53 204.66,-243.53"/>
<polygon fill="#9a32cd" stroke="#9a32cd" points="72.03,-240.03 62.03,-243.53 72.03,-247.03 72.03,-240.03"/>
<text text-anchor="middle" x="133.5" y="-268.53" font-family="Helvetica" font-size="10.00"> BackgroundTexture</text>
<text text-anchor="middle" x="133.5" y="-257.53" font-family="Helvetica" font-size="10.00">EnvironmentTexture</text>
<text text-anchor="middle" x="133.5" y="-246.53" font-family="Helvetica" font-size="10.00">RightBackgroundTexture</text>
</g>
<!-- Node92 -->
<g id="node10" class="node">
<title>Node92</title>
<g id="a_node10"><a xlink:href="classvtkActor.html" target="_top" xlink:title="represents an object (geometry &amp; properties) in a rendered scene">
<polygon fill="white" stroke="red" points="430,-313.03 430,-332.03 483,-332.03 483,-313.03 430,-313.03"/>
<text text-anchor="middle" x="456.5" y="-320.03" font-family="Helvetica" font-size="10.00">vtkActor</text>
</a>
</g>
</g>
<!-- Node47&#45;&gt;Node92 -->
<g id="edge15" class="edge">
<title>Node47-&gt;Node92</title>
<path fill="none" stroke="#9a32cd" stroke-dasharray="5,2" d="M37.59,-262.77C44.26,-281.8 57.45,-309.84 80,-322.53 139.8,-356.17 355.14,-334.49 429.8,-325.72"/>
<polygon fill="#9a32cd" stroke="#9a32cd" points="40.86,-261.49 34.46,-253.04 34.19,-263.63 40.86,-261.49"/>
<text text-anchor="middle" x="239.5" y="-343.53" font-family="Helvetica" font-size="10.00"> Texture</text>
</g>
<!-- Node120 -->
<g id="node17" class="node">
<title>Node120</title>
<g id="a_node17"><a xlink:href="classvtkCellPicker.html" target="_top" xlink:title="ray-cast cell picker for all kinds of Prop3Ds">
<polygon fill="white" stroke="black" points="646,-71.03 646,-90.03 720,-90.03 720,-71.03 646,-71.03"/>
<text text-anchor="middle" x="683" y="-78.03" font-family="Helvetica" font-size="10.00">vtkCellPicker</text>
</a>
</g>
</g>
<!-- Node47&#45;&gt;Node120 -->
<g id="edge28" class="edge">
<title>Node47-&gt;Node120</title>
<path fill="none" stroke="#9a32cd" stroke-dasharray="5,2" d="M42.08,-224.59C50.62,-209.96 64,-190.02 80,-176.53 195.2,-79.41 238.16,-62.28 385,-28.53 486.7,-5.16 519.22,-23.88 618,-57.53 630.52,-61.8 644.33,-66.73 655.91,-70.94"/>
<polygon fill="#9a32cd" stroke="#9a32cd" points="38.8,-223.28 36.97,-233.71 44.91,-226.7 38.8,-223.28"/>
<text text-anchor="middle" x="329.5" y="-55.53" font-family="Helvetica" font-size="10.00"> Texture</text>
</g>
<!-- Node84 -->
<g id="node8" class="node">
<title>Node84</title>
<g id="a_node8"><a xlink:href="classvtkEventForwarderCommand.html" target="_top" xlink:title="a simple event forwarder command">
<polygon fill="white" stroke="red" points="385,-427.03 385,-446.03 528,-446.03 528,-427.03 385,-427.03"/>
<text text-anchor="middle" x="456.5" y="-434.03" font-family="Helvetica" font-size="10.00">vtkEventForwarderCommand</text>
</a>
</g>
</g>
<!-- Node84&#45;&gt;Node3 -->
<g id="edge7" class="edge">
<title>Node84-&gt;Node3</title>
<path fill="none" stroke="#9a32cd" stroke-dasharray="5,2" d="M538.17,-429.66C565.27,-424.42 594.54,-415.31 618,-399.53 649.09,-378.62 669.81,-337.14 678.03,-318.28"/>
<polygon fill="#9a32cd" stroke="#9a32cd" points="537.53,-426.22 528.3,-431.42 538.76,-433.11 537.53,-426.22"/>
<text text-anchor="middle" x="582" y="-430.53" font-family="Helvetica" font-size="10.00"> EventForwarder</text>
</g>
<!-- Node85&#45;&gt;Node3 -->
<g id="edge9" class="edge">
<title>Node85-&gt;Node3</title>
<path fill="none" stroke="#9a32cd" stroke-dasharray="5,2" d="M372.62,-526.92C433.61,-536.52 546.97,-544.41 618,-488.53 673.52,-444.85 680.96,-349.25 681.89,-318.36"/>
<polygon fill="#9a32cd" stroke="#9a32cd" points="373.01,-523.44 362.58,-525.25 371.87,-530.35 373.01,-523.44"/>
<text text-anchor="middle" x="456.5" y="-536.53" font-family="Helvetica" font-size="10.00"> PickedActor2D</text>
</g>
<!-- Node92&#45;&gt;Node3 -->
<g id="edge11" class="edge">
<title>Node92-&gt;Node3</title>
<path fill="none" stroke="#9a32cd" stroke-dasharray="5,2" d="M493.52,-320.29C532.2,-317.87 593.78,-314.03 635.96,-311.4"/>
<polygon fill="#9a32cd" stroke="#9a32cd" points="493.02,-316.81 483.25,-320.93 493.45,-323.8 493.02,-316.81"/>
<text text-anchor="middle" x="582" y="-319.53" font-family="Helvetica" font-size="10.00"> OutlineActor</text>
</g>
<!-- Node93&#45;&gt;Node92 -->
<g id="edge12" class="edge">
<title>Node93-&gt;Node92</title>
<path fill="none" stroke="midnightblue" d="M251.87,-188.79C266.81,-212.77 291.28,-251.94 292,-252.53 319.58,-275.01 338.29,-259.51 367,-280.53 377.47,-288.2 374.18,-296.36 385,-303.53 398.32,-312.35 415.6,-317.09 429.73,-319.63"/>
<polygon fill="midnightblue" stroke="midnightblue" points="254.75,-186.81 246.5,-180.17 248.81,-190.51 254.75,-186.81"/>
</g>
<!-- Node93&#45;&gt;Node93 -->
<g id="edge14" class="edge">
<title>Node93-&gt;Node93</title>
<path fill="none" stroke="#9a32cd" stroke-dasharray="5,2" d="M222.83,-189.93C223.95,-194.85 229.5,-198.53 239.5,-198.53 255.5,-198.53 260.12,-189.1 253.37,-180.29"/>
<polygon fill="#9a32cd" stroke="#9a32cd" points="226.21,-190.87 225.63,-180.29 219.48,-188.92 226.21,-190.87"/>
<text text-anchor="middle" x="239.5" y="-201.53" font-family="Helvetica" font-size="10.00"> CachedProp3D</text>
</g>
<!-- Node93&#45;&gt;Node119 -->
<g id="edge30" class="edge">
<title>Node93-&gt;Node119</title>
<path fill="none" stroke="#9a32cd" stroke-dasharray="5,2" d="M251.95,-152.24C273.39,-119.95 323.08,-53.87 385,-28.53 557.65,42.1 787.41,-38.81 873.24,-74.4"/>
<polygon fill="#9a32cd" stroke="#9a32cd" points="248.94,-150.45 246.44,-160.75 254.82,-154.26 248.94,-150.45"/>
<text text-anchor="middle" x="582" y="-8.53" font-family="Helvetica" font-size="10.00"> InteractionProp</text>
</g>
<!-- Node93&#45;&gt;Node127 -->
<g id="edge34" class="edge">
<title>Node93-&gt;Node127</title>
<path fill="none" stroke="#9a32cd" stroke-dasharray="5,2" d="M281.58,-170.16C394.04,-169.15 707.6,-166.33 843.42,-165.11"/>
<polygon fill="#9a32cd" stroke="#9a32cd" points="281.3,-166.66 271.33,-170.25 281.36,-173.66 281.3,-166.66"/>
<text text-anchor="middle" x="582" y="-171.53" font-family="Helvetica" font-size="10.00"> InteractionProp</text>
</g>
<!-- Node113 -->
<g id="node12" class="node">
<title>Node113</title>
<g id="a_node12"><a xlink:href="classvtkPolyDataMapper.html" target="_top" xlink:title="map vtkPolyData to graphics primitives">
<polygon fill="white" stroke="red" points="405.5,-389.03 405.5,-408.03 507.5,-408.03 507.5,-389.03 405.5,-389.03"/>
<text text-anchor="middle" x="456.5" y="-396.03" font-family="Helvetica" font-size="10.00">vtkPolyDataMapper</text>
</a>
</g>
</g>
<!-- Node113&#45;&gt;Node3 -->
<g id="edge16" class="edge">
<title>Node113-&gt;Node3</title>
<path fill="none" stroke="#9a32cd" stroke-dasharray="5,2" d="M517.88,-391.41C548.97,-386.08 586.79,-376.96 618,-361.53 640.24,-350.54 661.49,-330.39 673.03,-318.35"/>
<polygon fill="#9a32cd" stroke="#9a32cd" points="516.93,-388.01 507.62,-393.07 518.05,-394.92 516.93,-388.01"/>
<text text-anchor="middle" x="582" y="-387.53" font-family="Helvetica" font-size="10.00"> OutlineMapper</text>
</g>
<!-- Node114&#45;&gt;Node3 -->
<g id="edge18" class="edge">
<title>Node114-&gt;Node3</title>
<path fill="none" stroke="#9a32cd" stroke-dasharray="5,2" d="M523.47,-255.99C552.83,-261.13 587.58,-268.53 618,-278.53 634.32,-283.9 651.93,-292.37 664.54,-298.94"/>
<polygon fill="#9a32cd" stroke="#9a32cd" points="523.77,-252.49 513.32,-254.26 522.59,-259.39 523.77,-252.49"/>
<text text-anchor="middle" x="582" y="-281.53" font-family="Helvetica" font-size="10.00"> TDxStyle</text>
</g>
<!-- Node116 -->
<g id="node14" class="node">
<title>Node116</title>
<g id="a_node14"><a xlink:href="classvtkOutlineSource.html" target="_top" xlink:title="create wireframe outline around bounding box">
<polygon fill="white" stroke="red" points="410.5,-351.03 410.5,-370.03 502.5,-370.03 502.5,-351.03 410.5,-351.03"/>
<text text-anchor="middle" x="456.5" y="-358.03" font-family="Helvetica" font-size="10.00">vtkOutlineSource</text>
</a>
</g>
</g>
<!-- Node116&#45;&gt;Node3 -->
<g id="edge20" class="edge">
<title>Node116-&gt;Node3</title>
<path fill="none" stroke="#9a32cd" stroke-dasharray="5,2" d="M512.8,-352.87C543.97,-347.96 583.48,-340.79 618,-331.53 631.57,-327.89 646.35,-322.67 658.29,-318.12"/>
<polygon fill="#9a32cd" stroke="#9a32cd" points="511.92,-349.46 502.57,-354.44 512.98,-356.38 511.92,-349.46"/>
<text text-anchor="middle" x="582" y="-349.53" font-family="Helvetica" font-size="10.00"> Outline</text>
</g>
<!-- Node118&#45;&gt;Node1 -->
<g id="edge21" class="edge">
<title>Node118-&gt;Node1</title>
<path fill="none" stroke="#9a32cd" stroke-dasharray="5,2" d="M1141.56,-387.57C1213.15,-394.34 1321.79,-394.23 1401,-347.53 1438.09,-325.67 1464.88,-279.42 1475.26,-259.26"/>
<polygon fill="#9a32cd" stroke="#9a32cd" points="1141.58,-384.05 1131.28,-386.53 1140.87,-391.02 1141.58,-384.05"/>
<text text-anchor="middle" x="1227.5" y="-393.53" font-family="Helvetica" font-size="10.00"> JoystickCamera</text>
</g>
<!-- Node119&#45;&gt;Node1 -->
<g id="edge23" class="edge">
<title>Node119-&gt;Node1</title>
<path fill="none" stroke="#9a32cd" stroke-dasharray="5,2" d="M985.05,-95.41C1084.7,-105.54 1263.5,-132.04 1401,-198.53 1425.84,-210.54 1452.31,-228.92 1467.44,-240.03"/>
<polygon fill="#9a32cd" stroke="#9a32cd" points="985.37,-91.92 975.07,-94.42 984.68,-98.89 985.37,-91.92"/>
<text text-anchor="middle" x="1227.5" y="-160.53" font-family="Helvetica" font-size="10.00"> TrackballActor</text>
</g>
<!-- Node120&#45;&gt;Node119 -->
<g id="edge25" class="edge">
<title>Node120-&gt;Node119</title>
<path fill="none" stroke="#9a32cd" stroke-dasharray="5,2" d="M730.61,-78.09C736.46,-77.86 742.37,-77.66 748,-77.53 781.77,-76.74 790.31,-75.12 824,-77.53 829.84,-77.95 835.9,-78.53 841.96,-79.21"/>
<polygon fill="#9a32cd" stroke="#9a32cd" points="730.05,-74.61 720.21,-78.54 730.35,-81.61 730.05,-74.61"/>
<text text-anchor="middle" x="786" y="-80.53" font-family="Helvetica" font-size="10.00"> InteractionPicker</text>
</g>
<!-- Node120&#45;&gt;Node127 -->
<g id="edge33" class="edge">
<title>Node120-&gt;Node127</title>
<path fill="none" stroke="#9a32cd" stroke-dasharray="5,2" d="M719.05,-93.7C759.31,-108.84 825.26,-133.62 867.5,-149.5"/>
<polygon fill="#9a32cd" stroke="#9a32cd" points="720.23,-90.41 709.64,-90.17 717.77,-96.96 720.23,-90.41"/>
<text text-anchor="middle" x="786" y="-135.53" font-family="Helvetica" font-size="10.00"> InteractionPicker</text>
</g>
<!-- Node121 -->
<g id="node18" class="node">
<title>Node121</title>
<g id="a_node18"><a xlink:href="classvtkPicker.html" target="_top" xlink:title="superclass for 3D geometric pickers (uses ray cast)">
<polygon fill="white" stroke="red" points="428,-38.03 428,-57.03 485,-57.03 485,-38.03 428,-38.03"/>
<text text-anchor="middle" x="456.5" y="-45.03" font-family="Helvetica" font-size="10.00">vtkPicker</text>
</a>
</g>
</g>
<!-- Node121&#45;&gt;Node120 -->
<g id="edge26" class="edge">
<title>Node121-&gt;Node120</title>
<path fill="none" stroke="midnightblue" d="M495.11,-53.06C537.02,-59.22 604.32,-69.11 645.7,-75.2"/>
<polygon fill="midnightblue" stroke="midnightblue" points="495.43,-49.57 485.03,-51.58 494.41,-56.5 495.43,-49.57"/>
</g>
<!-- Node126 -->
<g id="node19" class="node">
<title>Node126</title>
<g id="a_node19"><a xlink:href="classvtkBitArray.html" target="_top" xlink:title="dynamic, self-adjusting array of bits">
<polygon fill="white" stroke="red" points="424,-114.03 424,-133.03 489,-133.03 489,-114.03 424,-114.03"/>
<text text-anchor="middle" x="456.5" y="-121.03" font-family="Helvetica" font-size="10.00">vtkBitArray</text>
</a>
</g>
</g>
<!-- Node126&#45;&gt;Node120 -->
<g id="edge27" class="edge">
<title>Node126-&gt;Node120</title>
<path fill="none" stroke="#9a32cd" stroke-dasharray="5,2" d="M499.14,-118.44C531.68,-114.12 577.97,-107.25 618,-98.53 628.83,-96.18 640.53,-93.05 650.94,-90.07"/>
<polygon fill="#9a32cd" stroke="#9a32cd" points="498.54,-114.99 489.08,-119.75 499.44,-121.93 498.54,-114.99"/>
<text text-anchor="middle" x="582" y="-114.53" font-family="Helvetica" font-size="10.00"> InMask</text>
</g>
<!-- Node18 -->
<g id="node20" class="node">
<title>Node18</title>
<g id="a_node20"><a xlink:href="classvtkCollection.html" target="_top" xlink:title="create and manipulate ordered lists of objects">
<polygon fill="white" stroke="red" points="419.5,-76.03 419.5,-95.03 493.5,-95.03 493.5,-76.03 419.5,-76.03"/>
<text text-anchor="middle" x="456.5" y="-83.03" font-family="Helvetica" font-size="10.00">vtkCollection</text>
</a>
</g>
</g>
<!-- Node18&#45;&gt;Node120 -->
<g id="edge29" class="edge">
<title>Node18-&gt;Node120</title>
<path fill="none" stroke="#9a32cd" stroke-dasharray="5,2" d="M503.82,-84.5C545.87,-83.56 607.03,-82.2 645.65,-81.34"/>
<polygon fill="#9a32cd" stroke="#9a32cd" points="503.49,-81.01 493.57,-84.73 503.65,-88.01 503.49,-81.01"/>
<text text-anchor="middle" x="582" y="-86.53" font-family="Helvetica" font-size="10.00"> Locators</text>
</g>
<!-- Node127&#45;&gt;Node1 -->
<g id="edge31" class="edge">
<title>Node127-&gt;Node1</title>
<path fill="none" stroke="#9a32cd" stroke-dasharray="5,2" d="M983.63,-166.08C1081.08,-169.73 1256.82,-181.93 1401,-222.53 1419,-227.6 1438.92,-234.42 1454.25,-239.93"/>
<polygon fill="#9a32cd" stroke="#9a32cd" points="983.7,-162.58 973.58,-165.72 983.45,-169.57 983.7,-162.58"/>
<text text-anchor="middle" x="1227.5" y="-200.53" font-family="Helvetica" font-size="10.00"> JoystickActor</text>
</g>
<!-- Node128 -->
<g id="node22" class="node">
<title>Node128</title>
<g id="a_node22"><a xlink:href="classvtkInteractorStyleMultiTouchCamera.html" target="_top" xlink:title="multitouch manipulation of the camera">
<polygon fill="white" stroke="black" points="1157,-325.53 1157,-355.53 1298,-355.53 1298,-325.53 1157,-325.53"/>
<text text-anchor="start" x="1165" y="-343.53" font-family="Helvetica" font-size="10.00">vtkInteractorStyleMultiTouch</text>
<text text-anchor="middle" x="1227.5" y="-332.53" font-family="Helvetica" font-size="10.00">Camera</text>
</a>
</g>
</g>
<!-- Node128&#45;&gt;Node1 -->
<g id="edge36" class="edge">
<title>Node128-&gt;Node1</title>
<path fill="none" stroke="#9a32cd" stroke-dasharray="5,2" d="M1308.28,-334.15C1338.27,-329.72 1372.09,-322.22 1401,-309.53 1429.07,-297.21 1456.3,-273.02 1470.28,-259.42"/>
<polygon fill="#9a32cd" stroke="#9a32cd" points="1307.69,-330.7 1298.27,-335.53 1308.65,-337.63 1307.69,-330.7"/>
<text text-anchor="middle" x="1358.5" y="-335.53" font-family="Helvetica" font-size="10.00"> MultiTouchCamera</text>
</g>
<!-- Node129&#45;&gt;Node1 -->
<g id="edge39" class="edge">
<title>Node129-&gt;Node1</title>
<path fill="none" stroke="#9a32cd" stroke-dasharray="5,2" d="M985.27,-303.58C1081.99,-296.81 1254.38,-283.2 1401,-263.53 1410.39,-262.27 1420.36,-260.69 1429.95,-259.06"/>
<polygon fill="#9a32cd" stroke="#9a32cd" points="985.02,-300.09 975.29,-304.28 985.5,-307.07 985.02,-300.09"/>
<text text-anchor="middle" x="1227.5" y="-291.53" font-family="Helvetica" font-size="10.00"> TrackballCamera</text>
</g>
<!-- Node129&#45;&gt;Node128 -->
<g id="edge37" class="edge">
<title>Node129-&gt;Node128</title>
<path fill="none" stroke="midnightblue" d="M985.37,-316.19C1037.46,-321.45 1106.07,-328.37 1156.78,-333.49"/>
<polygon fill="midnightblue" stroke="midnightblue" points="985.48,-312.68 975.18,-315.16 984.78,-319.65 985.48,-312.68"/>
</g>
</g>
</svg>