<?xml version="1.0" encoding="us-ascii" standalone="no"?><svg xmlns="http://www.w3.org/2000/svg" xmlns:xlink="http://www.w3.org/1999/xlink" contentStyleType="text/css" height="441px" preserveAspectRatio="none" style="width:1124px;height:441px;background:#FFFFFF;" version="1.1" viewBox="0 0 1124 441" width="1124px" zoomAndPan="magnify"><defs/><g><!--class InteractorStyleSwitch--><g id="elem_InteractorStyleSwitch"><rect codeLine="1" fill="#F1F1F1" height="210.9688" id="InteractorStyleSwitch" rx="2.5" ry="2.5" style="stroke:#181818;stroke-width:0.5;" width="481" x="314.5" y="115"/><ellipse cx="471.75" cy="131" fill="#ADD1B2" rx="11" ry="11" style="stroke:#181818;stroke-width:1.0;"/><path d="M474.0938,126.6719 C473.1563,126.2344 472.5625,126.0938 471.6875,126.0938 C469.0625,126.0938 467.0625,128.1719 467.0625,130.8906 L467.0625,132.0156 C467.0625,134.5938 469.1719,136.4844 472.0625,136.4844 C473.2813,136.4844 474.4375,136.1875 475.1875,135.6406 C475.7656,135.2344 476.0938,134.7813 476.0938,134.3906 C476.0938,133.9375 475.7031,133.5469 475.2344,133.5469 C475.0156,133.5469 474.8125,133.625 474.625,133.8125 C474.1719,134.2969 474.1719,134.2969 473.9844,134.3906 C473.5625,134.6563 472.875,134.7813 472.1094,134.7813 C470.0625,134.7813 468.7656,133.6875 468.7656,131.9844 L468.7656,130.8906 C468.7656,129.1094 470.0156,127.7969 471.75,127.7969 C472.3281,127.7969 472.9375,127.9531 473.4063,128.2031 C473.8906,128.4844 474.0625,128.7031 474.1563,129.1094 C474.2188,129.5156 474.25,129.6406 474.3906,129.7656 C474.5313,129.9063 474.7656,130.0156 474.9844,130.0156 C475.25,130.0156 475.5156,129.875 475.6875,129.6563 C475.7969,129.5 475.8281,129.3125 475.8281,128.8906 L475.8281,127.4688 C475.8281,127.0313 475.8125,126.9063 475.7188,126.75 C475.5625,126.4844 475.2813,126.3438 474.9844,126.3438 C474.6875,126.3438 474.4844,126.4375 474.2656,126.75 L474.0938,126.6719 Z " fill="#000000"/><text fill="#000000" font-family="sans-serif" font-size="14" lengthAdjust="spacing" textLength="158" x="492.25" y="135.8467">InteractorStyleSwitch</text><line style="stroke:#181818;stroke-width:0.5;" x1="315.5" x2="794.5" y1="147" y2="147"/><rect fill="none" height="6" style="stroke:#C82930;stroke-width:1.0;" width="6" x="322.5" y="157.6484"/><text fill="#000000" font-family="sans-serif" font-size="14" lengthAdjust="spacing" textLength="368" x="334.5" y="163.9951">ActorManipulationInteractorStyle * TrackballActor;</text><rect fill="none" height="6" style="stroke:#C82930;stroke-width:1.0;" width="6" x="322.5" y="173.9453"/><text fill="#000000" font-family="sans-serif" font-size="14" lengthAdjust="spacing" textLength="306" x="334.5" y="180.292">CameraInteractorStyle * TrackballCamera;</text><line style="stroke:#181818;stroke-width:0.5;" x1="315.5" x2="794.5" y1="187.5938" y2="187.5938"/><ellipse cx="325.5" cy="201.2422" fill="#84BE84" rx="3" ry="3" style="stroke:#038048;stroke-width:1.0;"/><text fill="#000000" font-family="sans-serif" font-size="14" lengthAdjust="spacing" textLength="290" x="334.5" y="204.5889">void SetCurrentStyleToTrackballActor();</text><ellipse cx="325.5" cy="217.5391" fill="#84BE84" rx="3" ry="3" style="stroke:#038048;stroke-width:1.0;"/><text fill="#000000" font-family="sans-serif" font-size="14" lengthAdjust="spacing" textLength="305" x="334.5" y="220.8857">void SetCurrentStyleToTrackballCamera();</text><text fill="#000000" font-family="sans-serif" font-size="14" lengthAdjust="spacing" textLength="4" x="334.5" y="237.1826">&#160;</text><ellipse cx="325.5" cy="250.1328" fill="#84BE84" rx="3" ry="3" style="stroke:#038048;stroke-width:1.0;"/><text fill="#000000" font-family="sans-serif" font-size="14" lengthAdjust="spacing" textLength="360" x="334.5" y="253.4795">void SetDefaultRenderer(vtkRenderer *) override;</text><ellipse cx="325.5" cy="266.4297" fill="#84BE84" rx="3" ry="3" style="stroke:#038048;stroke-width:1.0;"/><text fill="#000000" font-family="sans-serif" font-size="14" lengthAdjust="spacing" textLength="362" x="334.5" y="269.7764">void SetCurrentRenderer(vtkRenderer *) override;</text><text fill="#000000" font-family="sans-serif" font-size="14" lengthAdjust="spacing" textLength="4" x="334.5" y="286.0732">&#160;</text><ellipse cx="325.5" cy="299.0234" fill="#84BE84" rx="3" ry="3" style="stroke:#038048;stroke-width:1.0;"/><text fill="#000000" font-family="sans-serif" font-size="14" lengthAdjust="spacing" textLength="455" x="334.5" y="302.3701">void SetInteractor(vtkRenderWindowInteractor *iren) override;</text><ellipse cx="325.5" cy="315.3203" fill="#84BE84" rx="3" ry="3" style="stroke:#038048;stroke-width:1.0;"/><text fill="#000000" font-family="sans-serif" font-size="14" lengthAdjust="spacing" textLength="331" x="334.5" y="318.667">vtkRenderWindowInteractor *GetInteractor();</text></g><!--class ActorManipulationInteractorStyle--><g id="elem_ActorManipulationInteractorStyle"><rect codeLine="32" fill="#F1F1F1" height="48" id="ActorManipulationInteractorStyle" rx="2.5" ry="2.5" style="stroke:#181818;stroke-width:0.5;" width="274" x="247" y="386"/><ellipse cx="262" cy="402" fill="#ADD1B2" rx="11" ry="11" style="stroke:#181818;stroke-width:1.0;"/><path d="M264.3438,397.6719 C263.4063,397.2344 262.8125,397.0938 261.9375,397.0938 C259.3125,397.0938 257.3125,399.1719 257.3125,401.8906 L257.3125,403.0156 C257.3125,405.5938 259.4219,407.4844 262.3125,407.4844 C263.5313,407.4844 264.6875,407.1875 265.4375,406.6406 C266.0156,406.2344 266.3438,405.7813 266.3438,405.3906 C266.3438,404.9375 265.9531,404.5469 265.4844,404.5469 C265.2656,404.5469 265.0625,404.625 264.875,404.8125 C264.4219,405.2969 264.4219,405.2969 264.2344,405.3906 C263.8125,405.6563 263.125,405.7813 262.3594,405.7813 C260.3125,405.7813 259.0156,404.6875 259.0156,402.9844 L259.0156,401.8906 C259.0156,400.1094 260.2656,398.7969 262,398.7969 C262.5781,398.7969 263.1875,398.9531 263.6563,399.2031 C264.1406,399.4844 264.3125,399.7031 264.4063,400.1094 C264.4688,400.5156 264.5,400.6406 264.6406,400.7656 C264.7813,400.9063 265.0156,401.0156 265.2344,401.0156 C265.5,401.0156 265.7656,400.875 265.9375,400.6563 C266.0469,400.5 266.0781,400.3125 266.0781,399.8906 L266.0781,398.4688 C266.0781,398.0313 266.0625,397.9063 265.9688,397.75 C265.8125,397.4844 265.5313,397.3438 265.2344,397.3438 C264.9375,397.3438 264.7344,397.4375 264.5156,397.75 L264.3438,397.6719 Z " fill="#000000"/><text fill="#000000" font-family="sans-serif" font-size="14" lengthAdjust="spacing" textLength="242" x="276" y="406.8467">ActorManipulationInteractorStyle</text><line style="stroke:#181818;stroke-width:0.5;" x1="248" x2="520" y1="418" y2="418"/><line style="stroke:#181818;stroke-width:0.5;" x1="248" x2="520" y1="426" y2="426"/></g><!--class CameraInteractorStyle--><g id="elem_CameraInteractorStyle"><rect codeLine="33" fill="#F1F1F1" height="48" id="CameraInteractorStyle" rx="2.5" ry="2.5" style="stroke:#181818;stroke-width:0.5;" width="197" x="626.5" y="386"/><ellipse cx="641.5" cy="402" fill="#ADD1B2" rx="11" ry="11" style="stroke:#181818;stroke-width:1.0;"/><path d="M643.8438,397.6719 C642.9063,397.2344 642.3125,397.0938 641.4375,397.0938 C638.8125,397.0938 636.8125,399.1719 636.8125,401.8906 L636.8125,403.0156 C636.8125,405.5938 638.9219,407.4844 641.8125,407.4844 C643.0313,407.4844 644.1875,407.1875 644.9375,406.6406 C645.5156,406.2344 645.8438,405.7813 645.8438,405.3906 C645.8438,404.9375 645.4531,404.5469 644.9844,404.5469 C644.7656,404.5469 644.5625,404.625 644.375,404.8125 C643.9219,405.2969 643.9219,405.2969 643.7344,405.3906 C643.3125,405.6563 642.625,405.7813 641.8594,405.7813 C639.8125,405.7813 638.5156,404.6875 638.5156,402.9844 L638.5156,401.8906 C638.5156,400.1094 639.7656,398.7969 641.5,398.7969 C642.0781,398.7969 642.6875,398.9531 643.1563,399.2031 C643.6406,399.4844 643.8125,399.7031 643.9063,400.1094 C643.9688,400.5156 644,400.6406 644.1406,400.7656 C644.2813,400.9063 644.5156,401.0156 644.7344,401.0156 C645,401.0156 645.2656,400.875 645.4375,400.6563 C645.5469,400.5 645.5781,400.3125 645.5781,399.8906 L645.5781,398.4688 C645.5781,398.0313 645.5625,397.9063 645.4688,397.75 C645.3125,397.4844 645.0313,397.3438 644.7344,397.3438 C644.4375,397.3438 644.2344,397.4375 644.0156,397.75 L643.8438,397.6719 Z " fill="#000000"/><text fill="#000000" font-family="sans-serif" font-size="14" lengthAdjust="spacing" textLength="165" x="655.5" y="406.8467">CameraInteractorStyle</text><line style="stroke:#181818;stroke-width:0.5;" x1="627.5" x2="822.5" y1="418" y2="418"/><line style="stroke:#181818;stroke-width:0.5;" x1="627.5" x2="822.5" y1="426" y2="426"/></g><!--class vtkInteractorStyleSwitchBase--><g id="elem_vtkInteractorStyleSwitchBase"><rect codeLine="21" fill="#F1F1F1" height="48" id="vtkInteractorStyleSwitchBase" rx="2.5" ry="2.5" style="stroke:#181818;stroke-width:0.5;" width="248" x="431" y="7"/><ellipse cx="446" cy="23" fill="#ADD1B2" rx="11" ry="11" style="stroke:#181818;stroke-width:1.0;"/><path d="M448.3438,18.6719 C447.4063,18.2344 446.8125,18.0938 445.9375,18.0938 C443.3125,18.0938 441.3125,20.1719 441.3125,22.8906 L441.3125,24.0156 C441.3125,26.5938 443.4219,28.4844 446.3125,28.4844 C447.5313,28.4844 448.6875,28.1875 449.4375,27.6406 C450.0156,27.2344 450.3438,26.7813 450.3438,26.3906 C450.3438,25.9375 449.9531,25.5469 449.4844,25.5469 C449.2656,25.5469 449.0625,25.625 448.875,25.8125 C448.4219,26.2969 448.4219,26.2969 448.2344,26.3906 C447.8125,26.6563 447.125,26.7813 446.3594,26.7813 C444.3125,26.7813 443.0156,25.6875 443.0156,23.9844 L443.0156,22.8906 C443.0156,21.1094 444.2656,19.7969 446,19.7969 C446.5781,19.7969 447.1875,19.9531 447.6563,20.2031 C448.1406,20.4844 448.3125,20.7031 448.4063,21.1094 C448.4688,21.5156 448.5,21.6406 448.6406,21.7656 C448.7813,21.9063 449.0156,22.0156 449.2344,22.0156 C449.5,22.0156 449.7656,21.875 449.9375,21.6563 C450.0469,21.5 450.0781,21.3125 450.0781,20.8906 L450.0781,19.4688 C450.0781,19.0313 450.0625,18.9063 449.9688,18.75 C449.8125,18.4844 449.5313,18.3438 449.2344,18.3438 C448.9375,18.3438 448.7344,18.4375 448.5156,18.75 L448.3438,18.6719 Z " fill="#000000"/><text fill="#000000" font-family="sans-serif" font-size="14" lengthAdjust="spacing" textLength="216" x="460" y="27.8467">vtkInteractorStyleSwitchBase</text><line style="stroke:#181818;stroke-width:0.5;" x1="432" x2="678" y1="39" y2="39"/><line style="stroke:#181818;stroke-width:0.5;" x1="432" x2="678" y1="47" y2="47"/></g><!--class vtkInteractorStyleTrackballActor--><g id="elem_vtkInteractorStyleTrackballActor"><rect codeLine="28" fill="#F1F1F1" height="48" id="vtkInteractorStyleTrackballActor" rx="2.5" ry="2.5" style="stroke:#181818;stroke-width:0.5;" width="272" x="7" y="196.5"/><ellipse cx="22" cy="212.5" fill="#ADD1B2" rx="11" ry="11" style="stroke:#181818;stroke-width:1.0;"/><path d="M24.3438,208.1719 C23.4063,207.7344 22.8125,207.5938 21.9375,207.5938 C19.3125,207.5938 17.3125,209.6719 17.3125,212.3906 L17.3125,213.5156 C17.3125,216.0938 19.4219,217.9844 22.3125,217.9844 C23.5313,217.9844 24.6875,217.6875 25.4375,217.1406 C26.0156,216.7344 26.3438,216.2813 26.3438,215.8906 C26.3438,215.4375 25.9531,215.0469 25.4844,215.0469 C25.2656,215.0469 25.0625,215.125 24.875,215.3125 C24.4219,215.7969 24.4219,215.7969 24.2344,215.8906 C23.8125,216.1563 23.125,216.2813 22.3594,216.2813 C20.3125,216.2813 19.0156,215.1875 19.0156,213.4844 L19.0156,212.3906 C19.0156,210.6094 20.2656,209.2969 22,209.2969 C22.5781,209.2969 23.1875,209.4531 23.6563,209.7031 C24.1406,209.9844 24.3125,210.2031 24.4063,210.6094 C24.4688,211.0156 24.5,211.1406 24.6406,211.2656 C24.7813,211.4063 25.0156,211.5156 25.2344,211.5156 C25.5,211.5156 25.7656,211.375 25.9375,211.1563 C26.0469,211 26.0781,210.8125 26.0781,210.3906 L26.0781,208.9688 C26.0781,208.5313 26.0625,208.4063 25.9688,208.25 C25.8125,207.9844 25.5313,207.8438 25.2344,207.8438 C24.9375,207.8438 24.7344,207.9375 24.5156,208.25 L24.3438,208.1719 Z " fill="#000000"/><text fill="#000000" font-family="sans-serif" font-size="14" lengthAdjust="spacing" textLength="240" x="36" y="217.3467">vtkInteractorStyleTrackballActor</text><line style="stroke:#181818;stroke-width:0.5;" x1="8" x2="278" y1="228.5" y2="228.5"/><line style="stroke:#181818;stroke-width:0.5;" x1="8" x2="278" y1="236.5" y2="236.5"/></g><!--class vtkInteractorStyleTrackballCamera--><g id="elem_vtkInteractorStyleTrackballCamera"><rect codeLine="29" fill="#F1F1F1" height="48" id="vtkInteractorStyleTrackballCamera" rx="2.5" ry="2.5" style="stroke:#181818;stroke-width:0.5;" width="287" x="830.5" y="196.5"/><ellipse cx="845.5" cy="212.5" fill="#ADD1B2" rx="11" ry="11" style="stroke:#181818;stroke-width:1.0;"/><path d="M847.8438,208.1719 C846.9063,207.7344 846.3125,207.5938 845.4375,207.5938 C842.8125,207.5938 840.8125,209.6719 840.8125,212.3906 L840.8125,213.5156 C840.8125,216.0938 842.9219,217.9844 845.8125,217.9844 C847.0313,217.9844 848.1875,217.6875 848.9375,217.1406 C849.5156,216.7344 849.8438,216.2813 849.8438,215.8906 C849.8438,215.4375 849.4531,215.0469 848.9844,215.0469 C848.7656,215.0469 848.5625,215.125 848.375,215.3125 C847.9219,215.7969 847.9219,215.7969 847.7344,215.8906 C847.3125,216.1563 846.625,216.2813 845.8594,216.2813 C843.8125,216.2813 842.5156,215.1875 842.5156,213.4844 L842.5156,212.3906 C842.5156,210.6094 843.7656,209.2969 845.5,209.2969 C846.0781,209.2969 846.6875,209.4531 847.1563,209.7031 C847.6406,209.9844 847.8125,210.2031 847.9063,210.6094 C847.9688,211.0156 848,211.1406 848.1406,211.2656 C848.2813,211.4063 848.5156,211.5156 848.7344,211.5156 C849,211.5156 849.2656,211.375 849.4375,211.1563 C849.5469,211 849.5781,210.8125 849.5781,210.3906 L849.5781,208.9688 C849.5781,208.5313 849.5625,208.4063 849.4688,208.25 C849.3125,207.9844 849.0313,207.8438 848.7344,207.8438 C848.4375,207.8438 848.2344,207.9375 848.0156,208.25 L847.8438,208.1719 Z " fill="#000000"/><text fill="#000000" font-family="sans-serif" font-size="14" lengthAdjust="spacing" textLength="255" x="859.5" y="217.3467">vtkInteractorStyleTrackballCamera</text><line style="stroke:#181818;stroke-width:0.5;" x1="831.5" x2="1116.5" y1="228.5" y2="228.5"/><line style="stroke:#181818;stroke-width:0.5;" x1="831.5" x2="1116.5" y1="236.5" y2="236.5"/></g><!--reverse link InteractorStyleSwitch to ActorManipulationInteractorStyle--><g id="link_InteractorStyleSwitch_ActorManipulationInteractorStyle"><path codeLine="18" d="M450.674,335.8923 C433.413,354.8193 417.229,372.5652 405.129,385.8325 " fill="none" id="InteractorStyleSwitch-backto-ActorManipulationInteractorStyle" style="stroke:#181818;stroke-width:1.0;"/><polygon fill="none" points="459.501,326.214,452.5024,327.9518,451.4148,335.0804,458.4134,333.3426,459.501,326.214" style="stroke:#181818;stroke-width:1.0;"/></g><!--reverse link InteractorStyleSwitch to CameraInteractorStyle--><g id="link_InteractorStyleSwitch_CameraInteractorStyle"><path codeLine="19" d="M658.716,335.8923 C675.876,354.8193 691.966,372.5652 703.995,385.8325 " fill="none" id="InteractorStyleSwitch-backto-CameraInteractorStyle" style="stroke:#181818;stroke-width:1.0;"/><polygon fill="none" points="649.941,326.214,651.0079,333.3457,658.0014,335.1039,656.9345,327.9722,649.941,326.214" style="stroke:#181818;stroke-width:1.0;"/></g><!--reverse link vtkInteractorStyleSwitchBase to InteractorStyleSwitch--><g id="link_vtkInteractorStyleSwitchBase_InteractorStyleSwitch"><path codeLine="25" d="M555,75.551 C555,87.515 555,101.025 555,114.856 " fill="none" id="vtkInteractorStyleSwitchBase-backto-InteractorStyleSwitch" style="stroke:#181818;stroke-width:1.0;"/><polygon fill="none" points="548,75.368,555,55.368,562,75.368,548,75.368" style="stroke:#181818;stroke-width:1.0;"/></g><!--reverse link vtkInteractorStyleTrackballCamera to CameraInteractorStyle--><g id="link_vtkInteractorStyleTrackballCamera_CameraInteractorStyle"><path codeLine="35" d="M927.034,256.866 C876.804,294.69 798.6,353.5785 755.712,385.8737 " fill="none" id="vtkInteractorStyleTrackballCamera-backto-CameraInteractorStyle" style="stroke:#181818;stroke-width:1.0;"/><polygon fill="none" points="923.03,251.118,943.218,244.679,931.452,262.302,923.03,251.118" style="stroke:#181818;stroke-width:1.0;"/></g><!--reverse link vtkInteractorStyleTrackballActor to ActorManipulationInteractorStyle--><g id="link_vtkInteractorStyleTrackballActor_ActorManipulationInteractorStyle"><path codeLine="36" d="M189.038,257.318 C237.701,295.178 313.012,353.7711 354.343,385.9266 " fill="none" id="vtkInteractorStyleTrackballActor-backto-ActorManipulationInteractorStyle" style="stroke:#181818;stroke-width:1.0;"/><polygon fill="none" points="184.522,262.674,173.036,244.868,193.119,251.624,184.522,262.674" style="stroke:#181818;stroke-width:1.0;"/></g><!--SRC=[ZPB1Ri8m38RlVWeVeOWdw2x0f6a7BXI9SsYD5f4bA7MB9jYxBss1Af0skwN9z__sNpjNeYpnKpDPaREn6VyeoiwIyo-um1mNpULQQ7cgb61fz1EA2MxTvt4lb6hPr8bMujin8sG7f028CwoDB30ZNbNMakOMtXhVTJ9D_yDslWtiqUzq49NY3Uc2BDb9pSVx6PCfcfgibGK5IyH5dgeFtGjsKXVctBzW8ftpIzrX_CFpRTBz0a1mQ6ZcyQ6DI8EZ0yZRDN4j1fLBKJe6OEmTyUtg_CERDbp0NuCurlN_C8p-YGuRI1sjWxTK0mQnE3TrhCa_]--></g></svg>