<svg xmlns="http://www.w3.org/2000/svg" xmlns:xlink="http://www.w3.org/1999/xlink" width="145pt" height="196pt" viewBox="0.00 0.00 145.00 196.00"><link xmlns="" type="text/css" rel="stylesheet" id="dark-mode-custom-link"/><link xmlns="" type="text/css" rel="stylesheet" id="dark-mode-general-link"/><style xmlns="" lang="en" type="text/css" id="dark-mode-custom-style"/><style xmlns="" lang="en" type="text/css" id="dark-mode-native-style"/><style xmlns="" lang="en" type="text/css" id="dark-mode-native-sheet"/>
<g id="graph0" class="graph" transform="scale(1 1) rotate(0) translate(4 192)">
<title>QVTKInteractor</title>
<polygon fill="white" stroke="transparent" points="-4,4 -4,-192 141,-192 141,4 -4,4"/>
<!-- Node1 -->
<g id="node1" class="node">
<title>Node1</title>
<g id="a_node1"><a xlink:title="an interactor for QVTKOpenGLNativeWidget (and QVTKWiget).">
<polygon fill="#bfbfbf" stroke="black" points="26,-0.5 26,-19.5 111,-19.5 111,-0.5 26,-0.5"/>
<text text-anchor="middle" x="68.5" y="-7.5" font-family="Helvetica" font-size="10.00">QVTKInteractor</text>
</a>
</g>
</g>
<!-- Node2 -->
<g id="node2" class="node">
<title>Node2</title>
<g id="a_node2"><a xlink:href="classvtkRenderWindowInteractor.html" target="_top" xlink:title="platform-independent render window interaction including picking and frame rate control.">
<polygon fill="white" stroke="black" points="0,-56.5 0,-75.5 137,-75.5 137,-56.5 0,-56.5"/>
<text text-anchor="middle" x="68.5" y="-63.5" font-family="Helvetica" font-size="10.00">vtkRenderWindowInteractor</text>
</a>
</g>
</g>
<!-- Node2&#45;&gt;Node1 -->
<g id="edge1" class="edge">
<title>Node2-&gt;Node1</title>
<path fill="none" stroke="midnightblue" d="M68.5,-45.8C68.5,-36.91 68.5,-26.78 68.5,-19.75"/>
<polygon fill="midnightblue" stroke="midnightblue" points="65,-46.08 68.5,-56.08 72,-46.08 65,-46.08"/>
</g>
<!-- Node3 -->
<g id="node3" class="node">
<title>Node3</title>
<g id="a_node3"><a xlink:href="classvtkObject.html" target="_top" xlink:title="abstract base class for most VTK objects">
<polygon fill="white" stroke="black" points="39,-112.5 39,-131.5 98,-131.5 98,-112.5 39,-112.5"/>
<text text-anchor="middle" x="68.5" y="-119.5" font-family="Helvetica" font-size="10.00">vtkObject</text>
</a>
</g>
</g>
<!-- Node3&#45;&gt;Node2 -->
<g id="edge2" class="edge">
<title>Node3-&gt;Node2</title>
<path fill="none" stroke="midnightblue" d="M68.5,-101.8C68.5,-92.91 68.5,-82.78 68.5,-75.75"/>
<polygon fill="midnightblue" stroke="midnightblue" points="65,-102.08 68.5,-112.08 72,-102.08 65,-102.08"/>
</g>
<!-- Node4 -->
<g id="node4" class="node">
<title>Node4</title>
<g id="a_node4"><a xlink:href="classvtkObjectBase.html" target="_top" xlink:title="abstract base class for most VTK objects">
<polygon fill="white" stroke="black" points="28,-168.5 28,-187.5 109,-187.5 109,-168.5 28,-168.5"/>
<text text-anchor="middle" x="68.5" y="-175.5" font-family="Helvetica" font-size="10.00">vtkObjectBase</text>
</a>
</g>
</g>
<!-- Node4&#45;&gt;Node3 -->
<g id="edge3" class="edge">
<title>Node4-&gt;Node3</title>
<path fill="none" stroke="midnightblue" d="M68.5,-157.8C68.5,-148.91 68.5,-138.78 68.5,-131.75"/>
<polygon fill="midnightblue" stroke="midnightblue" points="65,-158.08 68.5,-168.08 72,-158.08 65,-158.08"/>
</g>
</g>
</svg>