<svg xmlns="http://www.w3.org/2000/svg" xmlns:xlink="http://www.w3.org/1999/xlink" width="141pt" height="207pt" viewBox="0.00 0.00 141.00 207.00"><link xmlns="" type="text/css" rel="stylesheet" id="dark-mode-custom-link"/><link xmlns="" type="text/css" rel="stylesheet" id="dark-mode-general-link"/><style xmlns="" lang="en" type="text/css" id="dark-mode-custom-style"/><style xmlns="" lang="en" type="text/css" id="dark-mode-native-style"/><style xmlns="" lang="en" type="text/css" id="dark-mode-native-sheet"/>
<g id="graph0" class="graph" transform="scale(1 1) rotate(0) translate(4 203)">
<title>vtkInteractorStyleTrackballActor</title>
<polygon fill="white" stroke="transparent" points="-4,4 -4,-203 137,-203 137,4 -4,4"/>
<!-- Node1 -->
<g id="node1" class="node">
<title>Node1</title>
<g id="a_node1"><a xlink:title="manipulate objects in the scene independent of each other">
<polygon fill="#bfbfbf" stroke="black" points="0,-0.5 0,-30.5 133,-30.5 133,-0.5 0,-0.5"/>
<text text-anchor="start" x="8" y="-18.5" font-family="Helvetica" font-size="10.00">vtkInteractorStyleTrackball</text>
<text text-anchor="middle" x="66.5" y="-7.5" font-family="Helvetica" font-size="10.00">Actor</text>
</a>
</g>
</g>
<!-- Node2 -->
<g id="node2" class="node">
<title>Node2</title>
<g id="a_node2"><a xlink:href="classvtkInteractorStyle.html" target="_top" xlink:title="provide event-driven interface to the rendering window (defines trackball mode)">
<polygon fill="white" stroke="black" points="19.5,-67.5 19.5,-86.5 113.5,-86.5 113.5,-67.5 19.5,-67.5"/>
<text text-anchor="middle" x="66.5" y="-74.5" font-family="Helvetica" font-size="10.00">vtkInteractorStyle</text>
</a>
</g>
</g>
<!-- Node2&#45;&gt;Node1 -->
<g id="edge1" class="edge">
<title>Node2-&gt;Node1</title>
<path fill="none" stroke="midnightblue" d="M66.5,-57.23C66.5,-48.59 66.5,-38.5 66.5,-30.52"/>
<polygon fill="midnightblue" stroke="midnightblue" points="63,-57.48 66.5,-67.48 70,-57.48 63,-57.48"/>
</g>
<!-- Node3 -->
<g id="node3" class="node">
<title>Node3</title>
<g id="a_node3"><a xlink:href="classvtkInteractorObserver.html" target="_top" xlink:title="an abstract superclass for classes observing events invoked by vtkRenderWindowInteractor">
<polygon fill="white" stroke="black" points="11,-123.5 11,-142.5 122,-142.5 122,-123.5 11,-123.5"/>
<text text-anchor="middle" x="66.5" y="-130.5" font-family="Helvetica" font-size="10.00">vtkInteractorObserver</text>
</a>
</g>
</g>
<!-- Node3&#45;&gt;Node2 -->
<g id="edge2" class="edge">
<title>Node3-&gt;Node2</title>
<path fill="none" stroke="midnightblue" d="M66.5,-112.8C66.5,-103.91 66.5,-93.78 66.5,-86.75"/>
<polygon fill="midnightblue" stroke="midnightblue" points="63,-113.08 66.5,-123.08 70,-113.08 63,-113.08"/>
</g>
<!-- Node4 -->
<g id="node4" class="node">
<title>Node4</title>
<g id="a_node4"><a xlink:href="classvtkObject.html" target="_top" xlink:title="abstract base class for most VTK objects">
<polygon fill="white" stroke="red" points="37,-179.5 37,-198.5 96,-198.5 96,-179.5 37,-179.5"/>
<text text-anchor="middle" x="66.5" y="-186.5" font-family="Helvetica" font-size="10.00">vtkObject</text>
</a>
</g>
</g>
<!-- Node4&#45;&gt;Node3 -->
<g id="edge3" class="edge">
<title>Node4-&gt;Node3</title>
<path fill="none" stroke="midnightblue" d="M66.5,-168.8C66.5,-159.91 66.5,-149.78 66.5,-142.75"/>
<polygon fill="midnightblue" stroke="midnightblue" points="63,-169.08 66.5,-179.08 70,-169.08 63,-169.08"/>
</g>
</g>
</svg>