<svg xmlns="http://www.w3.org/2000/svg" xmlns:xlink="http://www.w3.org/1999/xlink" width="154pt" height="252pt" viewBox="0.00 0.00 154.00 252.00"><link xmlns="" type="text/css" rel="stylesheet" id="dark-mode-custom-link"/><link xmlns="" type="text/css" rel="stylesheet" id="dark-mode-general-link"/><style xmlns="" lang="en" type="text/css" id="dark-mode-custom-style"/><style xmlns="" lang="en" type="text/css" id="dark-mode-native-style"/><style xmlns="" lang="en" type="text/css" id="dark-mode-native-sheet"/>
<g id="graph0" class="graph" transform="scale(1 1) rotate(0) translate(4 248)">
<title>vtkInteractorStyleSwitch</title>
<polygon fill="white" stroke="transparent" points="-4,4 -4,-248 150,-248 150,4 -4,4"/>
<!-- Node1 -->
<g id="node1" class="node">
<title>Node1</title>
<g id="a_node1"><a xlink:title="class to swap between interactory styles">
<polygon fill="#bfbfbf" stroke="black" points="11,-56.5 11,-75.5 135,-75.5 135,-56.5 11,-56.5"/>
<text text-anchor="middle" x="73" y="-63.5" font-family="Helvetica" font-size="10.00">vtkInteractorStyleSwitch</text>
</a>
</g>
</g>
<!-- Node7 -->
<g id="node5" class="node">
<title>Node7</title>
<g id="a_node5"><a xlink:href="classvtkInteractorStyleTrackball.html" target="_top" xlink:title="provides trackball motion control">
<polygon fill="white" stroke="black" points="6.5,-0.5 6.5,-19.5 139.5,-19.5 139.5,-0.5 6.5,-0.5"/>
<text text-anchor="middle" x="73" y="-7.5" font-family="Helvetica" font-size="10.00">vtkInteractorStyleTrackball</text>
</a>
</g>
</g>
<!-- Node1&#45;&gt;Node7 -->
<g id="edge4" class="edge">
<title>Node1-&gt;Node7</title>
<path fill="none" stroke="midnightblue" d="M73,-45.8C73,-36.91 73,-26.78 73,-19.75"/>
<polygon fill="midnightblue" stroke="midnightblue" points="69.5,-46.08 73,-56.08 76.5,-46.08 69.5,-46.08"/>
</g>
<!-- Node2 -->
<g id="node2" class="node">
<title>Node2</title>
<g id="a_node2"><a xlink:href="classvtkInteractorStyleSwitchBase.html" target="_top" xlink:title="dummy interface class.">
<polygon fill="white" stroke="black" points="0,-112.5 0,-131.5 146,-131.5 146,-112.5 0,-112.5"/>
<text text-anchor="middle" x="73" y="-119.5" font-family="Helvetica" font-size="10.00">vtkInteractorStyleSwitchBase</text>
</a>
</g>
</g>
<!-- Node2&#45;&gt;Node1 -->
<g id="edge1" class="edge">
<title>Node2-&gt;Node1</title>
<path fill="none" stroke="midnightblue" d="M73,-101.8C73,-92.91 73,-82.78 73,-75.75"/>
<polygon fill="midnightblue" stroke="midnightblue" points="69.5,-102.08 73,-112.08 76.5,-102.08 69.5,-102.08"/>
</g>
<!-- Node3 -->
<g id="node3" class="node">
<title>Node3</title>
<g id="a_node3"><a xlink:href="classvtkInteractorStyle.html" target="_top" xlink:title="provide event-driven interface to the rendering window (defines trackball mode)">
<polygon fill="white" stroke="black" points="26,-168.5 26,-187.5 120,-187.5 120,-168.5 26,-168.5"/>
<text text-anchor="middle" x="73" y="-175.5" font-family="Helvetica" font-size="10.00">vtkInteractorStyle</text>
</a>
</g>
</g>
<!-- Node3&#45;&gt;Node2 -->
<g id="edge2" class="edge">
<title>Node3-&gt;Node2</title>
<path fill="none" stroke="midnightblue" d="M73,-157.8C73,-148.91 73,-138.78 73,-131.75"/>
<polygon fill="midnightblue" stroke="midnightblue" points="69.5,-158.08 73,-168.08 76.5,-158.08 69.5,-158.08"/>
</g>
<!-- Node4 -->
<g id="node4" class="node">
<title>Node4</title>
<g id="a_node4"><a xlink:href="classvtkInteractorObserver.html" target="_top" xlink:title="an abstract superclass for classes observing events invoked by vtkRenderWindowInteractor">
<polygon fill="white" stroke="red" points="17.5,-224.5 17.5,-243.5 128.5,-243.5 128.5,-224.5 17.5,-224.5"/>
<text text-anchor="middle" x="73" y="-231.5" font-family="Helvetica" font-size="10.00">vtkInteractorObserver</text>
</a>
</g>
</g>
<!-- Node4&#45;&gt;Node3 -->
<g id="edge3" class="edge">
<title>Node4-&gt;Node3</title>
<path fill="none" stroke="midnightblue" d="M73,-213.8C73,-204.91 73,-194.78 73,-187.75"/>
<polygon fill="midnightblue" stroke="midnightblue" points="69.5,-214.08 73,-224.08 76.5,-214.08 69.5,-214.08"/>
</g>
</g>
</svg>